P2
# Created by GStyleMcDon
30 37
255
192 192 192 192 192 192 192 192 192 192 192 192 192 192 192 192 192 197 197 197 191 192 192 192 192 192 192 192 192 192 
192 192 192 192 192 192 192 192 192 192 192 192 192 192 192 197 191 191 191 197 197 197 192 192 192 192 192 192 192 192 
192 192 192 192 192 192 192 192 192 192 192 192 192 192 192 191 197 191 197 191 191 191 197 192 192 192 192 192 192 192 
192 140 140 140 140 140 140 140 140 140 127 134 140 140 140 168 191 191 197 191 197 191 153 140 140 140 153 192 192 192 
140 72 153 172 153 110 72 72 72 81 6 72 72 72 72 191 197 197 191 197 191 151 40 6 59 72 97 192 192 192 
192 172 197 191 197 191 221 255 255 247 25 214 255 255 230 197 191 191 197 191 111 6 6 6 134 120 110 192 192 192 
192 172 191 197 191 191 205 255 255 175 102 70 175 255 205 191 197 197 191 102 15 6 46 151 255 120 110 192 192 192 
192 191 197 191 191 197 191 205 255 255 255 247 70 205 191 197 191 191 94 85 197 255 255 255 255 120 97 192 192 192 
192 175 191 197 191 191 197 191 205 255 255 255 230 46 247 191 197 127 85 197 230 255 255 255 255 120 110 192 192 192 
192 140 191 191 197 191 191 197 214 255 255 255 255 177 134 255 175 46 191 197 255 255 255 255 255 120 97 192 192 192 
192 140 140 197 191 197 197 197 255 255 255 255 255 255 46 191 85 134 191 247 255 255 255 255 255 120 110 192 192 192 
192 140 72 214 191 191 197 191 237 255 255 255 255 255 191 177 31 197 221 255 255 255 255 255 255 120 97 192 192 192 
192 140 72 255 205 191 191 197 197 255 255 255 255 247 46 134 127 197 255 255 255 255 255 255 255 120 110 192 192 192 
192 140 72 255 255 221 191 191 205 255 255 255 247 221 175 197 141 205 247 255 255 255 255 255 255 120 97 192 192 192 
192 140 72 255 255 255 197 191 197 230 255 175 127 127 94 6 102 127 134 221 255 255 255 255 255 120 110 192 192 192 
192 140 72 255 255 255 151 111 191 197 158 127 118 111 197 6 151 237 118 134 247 255 255 255 255 120 97 192 192 192 
192 140 72 255 255 205 151 197 177 111 127 151 36 175 118 6 46 70 6 141 158 255 255 255 255 120 97 192 192 192 
192 140 72 255 255 134 255 177 6 6 175 255 221 191 6 6 23 163 255 205 23 230 255 255 255 120 97 192 192 192 
192 140 72 255 255 134 255 85 111 15 6 6 6 6 6 6 6 6 6 6 6 163 255 255 255 120 97 192 192 192 
192 140 72 255 255 255 255 205 6 151 6 6 6 6 6 6 6 6 6 6 134 175 255 255 255 120 110 192 192 192 
192 140 72 255 118 255 255 255 118 70 46 6 6 6 6 6 6 6 85 205 85 205 255 255 255 120 110 192 192 192 
192 140 72 255 177 205 255 255 255 85 23 191 85 6 6 6 6 230 255 163 23 247 255 255 255 120 110 192 192 192 
192 140 72 255 255 118 247 255 230 102 6 85 230 134 85 134 255 255 163 6 163 255 255 255 255 120 97 192 192 192 
192 140 72 255 255 151 85 247 255 255 118 6 102 255 255 255 205 85 6 102 255 255 255 255 255 120 110 192 192 192 
192 140 72 247 102 205 255 62 255 255 255 70 46 175 151 70 6 6 6 6 118 255 255 255 255 120 110 192 192 192 
192 140 255 102 255 255 230 255 255 255 255 255 6 6 205 6 255 191 191 6 102 255 255 255 255 120 97 192 192 192 
192 72 205 191 151 118 255 255 255 255 255 255 247 151 255 230 118 6 23 175 255 255 255 255 255 120 110 192 192 192 
140 255 255 151 230 255 247 177 255 255 255 255 255 163 46 118 6 151 247 255 255 255 255 255 255 120 97 192 192 192 
72 255 255 102 177 134 151 221 255 255 255 221 151 163 163 6 85 255 255 255 255 255 255 255 255 120 110 192 192 192 
140 72 255 230 134 247 255 255 255 255 221 85 247 214 247 255 255 255 255 255 255 255 255 255 255 120 110 192 192 192 
192 72 255 205 177 255 255 255 255 247 118 247 255 255 255 255 255 255 255 255 255 255 255 255 255 120 97 192 192 192 
140 255 221 102 70 163 134 134 230 70 151 255 255 255 255 255 255 255 255 255 255 255 255 255 255 120 110 192 192 192 
72 109 6 15 112 230 255 230 151 107 85 153 165 164 164 164 164 164 164 164 164 164 164 164 164 97 110 192 192 192 
140 85 85 72 85 163 205 91 72 83 50 6 72 72 72 72 72 72 72 72 72 72 72 72 72 72 97 192 192 192 
192 192 192 192 192 102 94 175 192 192 192 158 70 192 192 192 192 192 192 192 192 192 192 192 192 192 192 192 192 192 
192 192 192 192 192 192 192 192 192 192 192 192 192 192 192 192 192 192 192 192 192 192 192 192 192 192 192 192 192 192 
192 192 192 192 192 192 192 192 192 192 192 192 192 192 192 192 192 192 192 192 192 192 192 192 192 192 192 192 192 192 
