P2
# Created by GStyleMcDon
65 112
255
15 0 0 5 0 13 8 0 1 7 0 6 0 10 0 0 4 0 4 12 0 10 20 0 3 1 1 14 1 0 2 9 0 6 2 0 16 0 11 0 2 2 1 0 0 5 7 9 0 2 8 3 6 0 4 0 2 0 9 1 5 3 0 0 14
5 19 5 0 4 2 0 2 8 1 6 0 10 2 0 5 3 9 19 7 7 0 0 8 0 14 4 0 15 8 6 0 0 0 8 6 0 1 0 15 15 4 0 6 6 3 0 7 8 6 7 10 0 0 2 22 18 6 0 0 4 1 10 0 1
127 162 180 214 34 22 143 152 212 194 248 243 197 212 153 220 215 209 236 232 151 205 187 121 197 243 254 201 99 166 237 185 198 229 198 241 230 147 239 146 252 167 165 219 140 238 99 222 30 168 107 140 165 195 115 233 233 225 104 193 221 255 148 131 82
150 50 215 255 95 16 164 27 189 251 116 242 103 223 77 152 92 108 255 171 85 233 189 90 154 236 236 198 159 229 163 113 109 234 242 111 223 63 238 139 224 147 109 128 222 178 106 240 157 90 151 95 154 80 121 207 239 183 173 113 175 158 118 131 1
73 169 81 72 212 134 208 83 82 196 241 171 137 168 192 240 91 236 198 196 88 79 150 22 76 168 163 158 233 84 203 80 90 177 170 215 131 102 226 128 140 76 236 179 100 250 222 247 195 222 78 90 86 157 75 223 237 139 112 121 84 92 218 72 187
157 34 135 187 90 101 211 243 234 100 218 66 32 72 136 248 192 84 231 239 208 59 110 58 159 223 118 181 63 44 68 150 197 88 144 100 218 182 105 180 191 46 20 127 252 126 245 234 135 237 102 186 80 218 125 148 105 71 192 135 153 35 243 240 4
203 37 210 103 224 242 70 94 235 79 235 216 155 21 82 135 245 83 249 161 231 80 170 148 179 194 67 41 45 106 15 92 194 137 223 124 176 225 153 222 116 59 216 193 230 170 155 205 200 192 192 108 205 183 147 110 210 98 227 124 252 99 93 116 0
111 56 184 86 42 63 146 67 151 85 243 43 245 239 204 235 188 232 153 152 230 108 122 120 89 92 200 74 128 92 135 58 140 179 144 154 100 245 166 96 175 198 186 235 240 243 87 204 113 246 126 239 229 141 206 204 250 251 135 205 106 195 56 140 20
154 10 109 141 129 100 109 143 35 76 129 210 238 245 192 210 171 138 105 206 149 117 66 149 95 153 195 97 166 36 69 201 75 165 119 240 185 232 236 149 204 154 144 197 103 200 160 33 142 130 198 85 128 199 139 230 67 211 144 247 240 100 206 233 1
80 23 64 52 74 91 143 100 32 57 137 118 174 255 145 243 233 17 70 228 131 186 135 89 166 144 219 94 23 164 156 121 135 87 41 155 238 243 211 116 156 169 80 142 121 204 139 102 153 81 147 241 206 107 200 135 112 175 228 174 250 122 11 198 0
166 84 7 187 192 33 91 206 88 138 86 216 106 228 245 107 210 78 110 236 66 230 144 148 187 248 88 124 107 239 235 221 224 243 173 87 182 232 196 128 201 224 208 131 239 168 59 171 132 44 218 237 243 199 105 205 206 204 196 136 50 133 98 252 1
119 162 70 123 130 218 150 221 43 127 125 182 155 134 246 123 244 147 207 147 93 119 201 95 95 49 68 120 255 226 246 222 173 220 126 164 48 205 235 202 222 191 211 201 249 214 79 40 58 134 161 192 245 244 179 125 30 46 140 235 160 68 121 205 8
85 211 4 168 235 153 224 205 62 109 106 232 144 185 240 179 217 225 149 34 157 73 121 153 219 153 95 168 136 250 215 250 244 194 237 134 102 126 238 129 169 233 173 201 239 190 174 68 98 160 14 47 206 210 242 138 53 35 91 135 236 29 84 241 7
203 91 159 7 192 241 122 217 115 233 200 122 211 217 246 241 219 90 223 133 61 95 169 226 242 181 107 85 111 248 234 187 116 201 88 219 51 226 168 224 255 224 186 177 176 168 178 114 137 70 124 177 62 77 195 229 143 25 172 103 13 221 100 140 219
112 149 210 51 71 149 140 235 221 208 110 174 201 221 230 183 78 245 125 160 95 173 200 100 187 215 118 138 220 196 82 67 195 88 174 226 162 246 157 120 193 134 104 167 204 105 223 35 120 57 60 99 232 150 7 5 5 215 10 166 182 0 3 228 160
182 123 173 155 0 156 62 166 172 231 119 178 86 203 241 147 183 247 190 224 142 234 152 114 244 154 82 211 219 65 228 58 125 218 128 111 206 200 211 175 181 161 91 230 196 166 90 28 105 82 81 95 135 115 144 167 147 8 27 33 2 9 37 78 153
128 158 103 112 14 99 146 113 154 194 243 170 221 91 222 233 249 236 248 214 73 113 184 198 67 87 118 76 172 87 90 133 107 237 73 154 204 123 246 169 238 104 196 108 80 240 172 49 62 108 97 25 90 243 225 180 216 148 65 8 3 204 251 5 186
186 71 211 138 130 105 91 164 208 237 168 183 181 156 170 230 230 246 218 126 97 154 122 160 239 196 100 161 54 58 199 142 175 137 170 180 250 187 167 229 182 84 95 232 194 193 107 101 103 42 29 88 146 102 72 8 58 31 18 33 242 251 196 2 239
226 153 202 169 47 144 135 186 224 254 192 230 120 218 142 252 190 238 222 156 165 113 66 204 211 100 231 199 42 206 166 229 62 58 122 232 223 219 114 244 142 87 58 246 203 187 82 79 58 66 85 146 232 66 14 15 5 42 92 143 53 255 230 8 161
79 149 160 99 26 156 159 175 227 225 243 189 228 115 192 117 153 196 230 238 188 110 102 136 189 95 55 105 72 118 69 154 121 186 89 87 130 112 166 65 40 241 116 124 248 139 35 203 202 41 136 13 14 32 41 232 223 87 212 87 9 244 227 2 136
147 82 104 178 162 25 177 195 168 240 194 170 221 206 160 193 96 211 165 237 181 151 112 109 130 226 230 148 46 128 148 177 145 93 153 192 209 164 243 70 123 211 169 213 61 151 187 48 199 80 5 162 146 85 200 215 206 162 120 139 3 245 248 60 61
153 140 94 151 161 33 129 138 102 204 244 212 166 232 140 117 180 146 227 195 235 180 162 208 121 229 149 94 141 38 115 104 175 173 107 109 173 114 134 184 124 204 114 255 48 201 255 164 45 36 73 128 165 73 243 165 193 154 173 154 48 192 148 240 7
79 97 166 43 146 96 44 180 143 166 171 63 193 144 212 247 84 116 125 97 187 246 221 160 227 192 107 115 173 132 153 167 84 108 125 128 69 66 214 206 75 154 216 103 190 142 81 1 9 181 106 191 203 185 150 47 93 128 178 65 9 116 220 189 2
143 63 145 147 252 235 202 30 90 239 209 158 143 117 176 181 154 147 159 211 132 144 238 233 136 131 179 140 131 74 75 96 144 148 183 211 156 113 143 230 126 190 77 65 49 76 127 238 217 123 205 220 241 243 235 166 218 61 135 12 8 195 228 228 4
117 75 88 159 164 134 250 49 197 164 164 99 159 251 224 122 123 193 154 182 227 248 233 192 182 93 166 159 107 146 61 138 145 108 199 140 186 116 73 248 49 188 108 80 42 212 245 252 107 234 235 160 223 185 200 236 207 48 85 93 0 190 234 244 5
39 165 109 47 97 170 228 231 8 176 218 230 227 163 227 250 241 148 32 255 244 149 188 215 99 97 55 101 133 31 122 125 62 10 208 209 154 181 113 63 141 62 39 38 100 235 239 47 74 80 101 80 157 245 104 32 95 151 66 240 35 179 230 247 1
135 205 25 23 157 194 240 198 186 24 99 174 216 143 63 84 164 85 186 233 110 101 32 69 156 66 15 41 50 62 29 70 25 107 83 84 179 90 137 134 98 100 98 108 45 119 170 17 231 237 154 107 231 166 180 113 123 141 104 227 20 0 198 255 25
193 206 69 73 163 224 248 230 226 19 45 231 99 221 8 237 178 201 53 255 127 27 42 67 178 60 55 37 23 104 86 46 89 127 50 52 80 106 113 144 119 86 47 60 77 27 38 25 106 254 235 68 228 210 142 170 85 134 200 201 31 0 242 242 62
14 22 128 63 131 187 226 255 96 140 142 137 172 64 196 170 171 242 171 66 60 204 174 163 77 115 99 25 88 34 138 133 148 92 121 94 134 186 95 75 45 68 120 162 45 71 101 130 58 69 139 79 255 247 237 26 173 63 201 176 12 11 225 238 135
54 0 76 202 215 132 83 122 175 104 218 234 143 66 52 68 52 87 68 49 161 101 110 139 32 44 37 74 110 98 20 102 238 218 86 95 121 59 82 60 79 81 108 53 94 53 54 79 110 104 104 108 86 41 39 89 41 112 46 183 5 17 218 231 190
134 20 0 181 226 180 43 108 119 50 128 87 172 69 135 155 36 54 150 73 151 81 129 130 125 80 35 78 144 57 54 115 147 118 41 59 27 22 124 132 172 49 24 107 112 24 162 91 139 149 97 72 113 58 60 44 79 26 69 89 12 77 86 141 233
167 88 58 10 41 175 85 119 206 44 107 148 108 50 151 90 29 171 117 219 188 213 76 200 228 33 146 45 122 94 142 42 90 46 147 137 191 162 95 41 65 143 130 6 191 203 111 20 132 104 137 104 59 87 144 81 114 73 99 21 30 123 62 102 98
161 86 171 145 3 17 140 39 77 117 43 53 114 129 95 52 126 64 13 53 30 62 157 107 44 81 38 103 12 20 30 133 148 116 185 224 94 85 55 147 60 64 113 105 121 103 215 48 162 57 148 146 127 74 143 55 87 146 41 75 97 46 142 174 68
95 159 89 69 65 3 42 112 44 60 116 84 144 60 131 53 172 50 39 43 65 125 100 80 77 103 55 130 32 96 43 93 106 185 102 175 74 102 5 128 106 44 64 138 11 161 121 161 122 46 79 141 39 66 126 40 77 109 13 101 61 121 184 93 70
211 190 58 139 89 132 53 34 8 38 135 27 182 185 187 174 26 132 152 36 10 139 144 254 71 123 68 57 115 15 147 70 180 76 131 44 139 36 82 197 50 192 179 27 68 116 155 126 142 150 31 59 139 116 77 93 44 132 43 43 98 42 111 0 17
84 190 45 173 94 149 31 96 53 118 174 91 21 52 42 57 108 81 19 133 118 44 90 145 201 37 225 128 45 127 62 158 112 72 61 108 96 146 115 87 17 147 107 41 29 144 69 80 76 103 79 159 218 171 46 129 81 58 62 75 45 67 13 80 57
3 209 71 136 129 129 24 120 71 121 129 82 102 110 10 100 148 107 48 145 83 75 186 81 230 40 92 187 105 54 30 119 129 63 38 92 111 108 161 53 45 57 55 71 38 82 193 190 148 161 126 88 158 130 92 126 92 9 41 36 99 125 24 36 21
9 145 120 119 68 34 90 47 101 45 12 36 63 120 38 115 176 87 57 122 20 55 142 183 159 88 208 179 51 121 85 173 160 158 128 164 86 181 82 50 161 114 60 53 161 118 203 101 15 31 56 59 31 49 21 69 91 53 88 82 24 76 71 101 10
0 215 121 146 121 123 78 105 59 124 164 66 138 83 100 188 123 169 105 41 135 160 40 196 155 96 62 145 121 106 115 182 73 150 79 43 73 182 159 111 43 20 12 114 115 152 193 147 29 81 35 100 57 61 67 41 82 19 102 16 55 123 32 7 131
3 211 25 54 129 57 160 54 131 51 184 75 159 86 40 69 154 109 152 62 150 193 120 67 88 68 92 69 180 84 146 102 108 119 58 27 54 123 115 156 59 65 29 62 24 144 194 98 9 59 77 48 92 44 52 45 89 78 38 25 67 79 7 49 106
12 116 142 172 72 119 155 68 157 127 113 149 83 207 124 52 154 153 157 123 190 144 77 127 68 137 164 92 103 190 152 134 141 87 108 26 77 156 168 179 112 131 34 81 45 66 34 4 61 97 54 68 41 80 113 68 34 127 98 75 37 5 69 5 51
0 109 86 92 134 177 70 130 105 181 143 86 65 23 31 132 87 152 107 161 72 53 88 101 98 177 118 171 91 120 163 109 167 141 96 162 155 84 170 203 76 34 52 71 74 32 15 5 57 50 83 65 102 41 53 128 57 106 56 0 44 94 63 39 12
8 83 86 108 94 137 89 151 94 142 56 110 51 115 91 145 151 177 99 129 79 167 124 155 133 168 167 133 107 66 211 134 87 127 95 165 198 135 68 107 161 54 48 68 48 80 39 27 72 52 109 13 77 99 34 85 91 35 24 47 12 28 87 84 3
94 133 162 94 133 63 159 166 170 111 160 58 85 20 25 75 77 75 169 117 145 91 138 104 163 97 132 105 207 168 108 85 137 130 70 34 216 118 194 158 82 181 164 164 113 35 57 20 74 90 67 106 64 101 40 95 143 7 151 31 94 75 11 29 67
137 70 126 164 94 150 122 59 55 50 153 103 139 53 127 118 138 114 93 154 70 137 41 89 121 75 161 154 197 208 114 204 189 60 166 109 207 114 89 131 147 239 153 47 180 156 55 103 12 77 100 145 90 38 132 135 41 101 60 78 4 86 101 78 30
151 63 166 84 135 72 152 104 30 51 102 98 161 114 47 94 140 136 88 140 66 129 107 66 119 68 161 134 96 172 93 131 234 64 82 98 195 169 82 79 108 172 132 86 158 70 88 5 40 37 142 109 41 92 98 90 47 48 104 20 82 3 36 161 15
51 30 148 124 56 121 73 75 133 116 45 74 135 130 114 152 81 161 120 92 138 145 124 155 91 49 150 105 72 77 130 236 123 130 49 63 165 187 127 99 189 74 141 94 138 114 65 30 99 73 59 77 51 66 152 42 18 157 47 89 151 80 118 112 43
0 82 95 93 152 58 190 144 139 113 123 89 146 107 171 106 132 134 158 161 127 109 145 40 160 98 177 177 113 108 200 140 18 86 84 40 238 122 121 126 81 105 114 87 98 168 40 16 82 132 99 68 180 59 120 43 91 63 80 47 61 16 145 49 130
7 44 117 77 119 113 194 156 176 197 111 115 120 147 141 85 131 150 164 132 99 111 186 72 85 87 133 94 55 130 208 119 20 177 75 14 243 130 129 185 50 104 173 74 177 168 53 48 84 92 94 76 164 46 113 33 134 83 54 67 39 9 54 82 101
59 106 84 170 121 111 61 107 192 101 42 44 91 90 126 174 85 66 100 108 72 108 38 43 140 66 162 159 65 140 119 181 9 88 135 126 211 200 52 141 10 117 170 27 163 134 25 13 99 53 121 32 208 28 59 124 105 44 117 71 19 114 143 96 142
161 122 111 101 55 176 123 76 108 196 79 83 78 72 111 147 108 127 90 166 131 167 95 135 92 23 205 71 119 77 173 56 116 171 67 76 222 104 158 127 42 86 104 7 7 227 223 122 19 160 36 47 189 94 145 61 96 41 67 130 107 121 105 140 81
62 171 55 137 81 135 170 139 102 135 84 94 139 147 103 162 92 44 106 76 121 231 20 30 149 26 214 144 75 75 150 122 55 129 166 35 226 169 37 145 25 67 135 7 21 209 166 122 43 135 68 44 185 151 115 50 99 45 109 28 63 143 84 131 46
156 11 127 83 157 140 124 138 127 32 119 174 163 116 145 112 124 89 61 122 44 121 8 36 109 98 177 205 83 119 28 18 9 77 118 31 238 192 41 136 40 18 12 38 21 177 24 61 187 18 38 63 149 90 74 83 66 54 125 134 126 85 106 53 11
106 78 39 123 104 167 104 159 117 192 0 11 130 166 84 125 93 150 138 52 90 104 75 85 37 136 213 210 60 172 85 115 90 119 133 64 219 205 30 129 99 116 89 88 89 177 6 15 170 183 139 113 98 51 67 22 68 126 25 82 6 106 47 78 5
49 57 40 162 135 171 187 113 168 75 93 17 159 53 41 119 125 115 130 35 87 148 174 200 154 174 109 228 28 162 175 188 192 193 110 54 28 218 55 121 188 190 199 183 176 149 25 156 70 112 67 13 52 22 16 36 73 131 71 7 41 41 79 106 34
49 23 62 23 126 59 123 160 163 122 59 95 140 33 114 43 138 3 44 99 44 126 100 151 146 112 150 221 38 90 34 40 54 17 49 57 21 229 208 53 64 45 40 30 52 32 53 31 40 27 36 59 21 41 13 9 41 87 131 18 6 104 97 50 7
10 40 22 66 4 125 171 131 140 84 213 152 163 131 182 146 31 112 6 80 105 37 50 100 124 135 67 183 89 140 190 189 210 210 162 44 6 236 214 39 57 59 52 43 53 21 20 23 27 35 64 98 115 91 146 31 8 56 81 83 49 55 32 4 84
41 3 58 0 44 114 47 174 197 105 156 68 134 34 104 45 23 166 43 63 132 69 119 56 161 99 39 134 221 114 164 148 139 148 214 145 70 234 212 44 69 43 60 54 38 50 16 37 42 24 26 14 121 116 138 105 61 106 32 108 22 74 47 47 57
13 51 15 40 24 54 22 71 14 116 6 136 35 124 14 109 122 166 148 16 50 134 92 108 58 75 53 201 215 138 173 192 176 187 155 164 94 229 231 36 57 140 150 101 37 21 45 17 22 26 11 11 37 97 36 20 120 16 93 60 12 28 7 62 109
50 19 39 25 60 32 20 50 38 19 34 73 123 73 57 104 74 121 96 8 56 178 176 171 152 69 6 196 226 74 145 140 147 148 142 135 3 237 230 12 58 164 181 176 152 30 11 113 93 105 85 74 86 64 18 9 144 6 88 30 36 2 40 76 86
17 13 17 47 17 69 59 52 72 146 139 154 71 36 150 145 167 44 15 62 119 123 142 177 165 133 22 210 210 30 117 172 196 193 181 127 0 246 211 60 138 175 163 162 152 78 0 93 197 179 187 170 144 134 92 113 35 77 28 1 60 15 29 97 74
0 67 11 81 11 46 36 42 129 142 95 97 22 85 31 12 157 30 40 27 16 188 142 140 145 55 13 212 213 50 111 186 7 23 202 133 18 241 223 37 98 152 114 98 202 21 13 130 207 1 2 0 2 115 60 33 17 7 85 35 13 30 70 128 1
15 122 14 108 13 7 69 16 44 115 139 131 43 134 52 0 156 18 17 52 43 169 28 24 95 76 21 203 221 40 128 208 4 9 191 126 7 240 219 33 84 121 18 3 205 22 15 132 222 4 9 9 50 59 0 48 28 8 96 0 63 8 66 113 63
9 41 21 45 0 34 53 5 14 32 61 10 91 64 9 8 172 19 14 43 27 170 19 0 116 66 2 207 223 47 141 211 2 47 216 158 23 238 229 31 76 131 19 25 204 15 29 100 208 4 20 10 22 3 13 26 13 18 8 6 95 3 53 62 0
6 111 43 30 11 15 80 45 5 96 36 27 11 0 9 2 176 21 22 48 29 173 16 15 117 61 12 197 217 47 145 205 6 16 208 165 23 230 222 31 71 136 38 19 197 22 22 81 206 3 19 21 7 12 11 28 37 12 36 6 127 4 8 86 68
13 156 13 0 65 27 44 1 26 48 7 42 1 28 0 0 179 19 22 45 29 173 17 13 116 61 11 195 217 45 142 203 3 16 213 170 23 231 221 28 67 141 43 22 196 21 27 75 206 0 7 0 18 29 0 10 26 12 38 2 107 0 39 67 50
5 167 96 83 4 37 11 30 13 51 6 4 14 6 0 8 179 17 40 31 28 174 17 10 114 62 11 192 214 41 136 200 0 4 207 165 21 229 219 24 61 147 31 24 193 24 21 59 210 2 11 9 0 88 15 36 2 39 6 30 19 0 35 92 73
10 32 25 8 37 15 37 22 3 109 6 94 27 24 11 1 180 17 24 45 26 173 16 8 112 61 11 191 212 40 134 202 0 0 211 170 18 223 218 22 56 154 13 22 188 29 10 38 206 4 10 0 2 158 25 6 29 22 20 18 1 3 39 62 2
0 22 22 5 26 38 21 0 9 120 2 75 65 0 0 1 188 20 27 47 24 173 15 7 110 60 11 192 215 44 136 207 3 4 220 177 16 215 219 23 54 159 10 15 184 34 20 27 201 2 13 0 4 100 20 38 9 32 2 47 26 0 43 57 0
3 38 0 22 9 15 23 2 5 12 9 88 59 20 0 0 182 17 26 40 22 173 14 6 109 60 11 191 215 45 135 209 2 2 219 172 19 208 220 26 53 161 11 6 180 37 52 29 202 6 10 18 0 123 20 9 17 38 19 5 36 4 64 77 4
2 36 14 1 7 5 82 43 11 36 0 94 40 0 8 10 179 13 22 50 21 173 15 4 109 62 11 188 212 43 132 208 0 0 216 172 27 204 221 29 54 161 9 3 176 40 39 29 199 6 5 4 32 49 13 4 36 20 55 22 36 34 73 77 1
0 67 13 31 15 2 81 49 1 47 2 116 44 11 3 2 183 13 22 36 20 174 16 2 109 63 11 186 211 42 130 208 1 0 212 174 34 203 221 31 55 160 8 5 172 40 18 25 193 11 17 9 3 55 20 7 18 28 62 14 35 19 75 81 0
9 47 14 15 49 24 48 0 7 5 0 112 35 4 3 5 185 10 17 40 28 181 10 7 109 66 9 210 213 42 130 213 0 4 214 173 43 196 224 28 54 161 43 40 158 48 35 15 193 63 87 69 61 95 22 30 7 32 68 52 11 7 59 73 6
2 56 34 22 29 1 21 16 2 20 6 30 105 102 113 111 122 13 36 60 40 21 144 156 161 59 180 67 226 30 132 204 7 2 206 170 32 181 97 41 37 189 117 102 141 50 42 26 32 63 62 61 15 40 15 8 23 10 24 24 19 27 75 74 0
1 136 15 0 7 17 0 12 14 2 0 4 0 1 21 8 23 33 23 47 66 20 143 51 103 6 182 90 225 34 138 205 0 5 214 165 40 197 88 164 58 154 43 25 38 27 26 18 4 28 15 7 2 26 6 15 9 19 4 21 2 43 81 77 0
19 75 23 26 16 8 8 4 7 15 17 5 5 3 11 12 13 74 97 77 97 98 25 51 76 17 166 99 213 35 117 195 3 0 201 186 30 207 93 172 47 45 50 114 143 135 14 9 6 9 29 22 27 11 22 1 24 7 38 17 15 57 63 87 5
0 157 52 2 8 18 0 10 11 0 8 14 19 12 0 32 88 119 164 189 194 205 73 27 17 42 179 104 212 115 122 213 0 6 185 147 51 194 149 87 136 49 38 209 174 178 170 147 155 149 30 12 0 18 3 15 10 6 35 1 12 68 89 81 1
7 34 33 6 15 0 10 1 9 6 2 15 2 1 35 94 149 135 155 100 63 99 103 17 28 75 95 30 124 103 65 116 20 41 110 87 98 100 83 36 119 13 37 104 99 67 141 128 130 116 82 31 23 6 13 2 23 3 20 14 52 65 85 71 0
9 17 13 10 2 10 0 6 4 15 22 3 10 12 26 75 78 90 100 105 84 48 26 41 49 36 23 46 50 50 63 49 65 71 62 49 57 51 40 51 64 52 34 32 30 31 31 32 13 22 8 0 0 1 3 13 6 8 0 12 55 72 91 72 5
2 94 23 20 0 9 6 11 1 0 0 11 2 0 7 9 4 21 7 21 32 18 37 41 52 41 32 48 46 52 43 56 58 52 68 59 61 43 42 42 71 43 15 7 24 6 4 12 5 16 23 23 11 15 0 13 13 1 18 16 38 61 94 66 3
0 104 18 23 0 1 0 2 0 12 10 2 4 5 5 5 1 11 3 14 29 19 29 37 48 23 26 46 51 51 45 62 64 67 62 58 60 43 42 32 56 48 32 31 14 17 8 9 16 20 21 34 17 0 1 10 5 9 1 16 47 65 88 67 5
2 112 11 23 10 14 9 9 10 2 5 11 1 0 3 12 15 18 9 13 26 51 38 44 53 39 30 43 48 50 55 52 63 75 59 68 58 50 66 28 54 36 16 25 68 49 47 10 11 4 16 31 9 4 0 12 13 0 5 12 58 76 91 66 0
3 105 13 20 0 21 10 6 2 8 13 4 5 0 43 6 6 7 23 29 24 42 25 41 58 37 37 54 65 59 52 55 61 64 56 56 59 57 48 37 57 38 21 14 55 42 20 14 40 17 13 4 12 19 18 3 5 13 2 39 55 77 96 71 2
17 84 7 4 5 29 15 7 8 4 9 16 0 13 64 17 19 6 16 26 27 23 21 29 45 52 41 46 54 75 82 72 75 84 90 70 48 55 23 55 66 18 37 25 35 31 6 12 28 14 17 0 14 15 7 0 17 13 4 6 56 78 97 71 3
0 25 25 4 5 27 20 14 5 9 2 13 7 15 20 15 24 11 18 9 27 20 34 40 51 45 53 40 66 77 99 94 93 78 56 76 99 95 41 76 34 16 44 53 49 13 10 6 3 15 9 12 3 7 8 19 32 0 32 43 41 75 94 63 0
0 12 16 30 16 0 5 12 13 5 7 20 14 2 0 0 6 2 21 14 20 30 46 32 62 47 60 39 70 91 80 55 76 112 110 99 59 62 43 75 56 41 30 22 29 23 0 11 26 15 0 10 11 0 0 7 24 4 0 20 35 52 90 57 3
16 28 3 30 14 3 3 11 5 5 14 20 22 10 12 0 8 0 21 23 11 23 43 26 44 58 52 41 61 75 103 97 92 96 74 81 70 55 76 66 44 47 46 19 25 16 0 4 8 3 5 7 0 3 14 31 6 23 16 39 8 53 88 52 9
22 7 0 6 46 47 12 3 2 1 9 4 1 3 7 4 0 1 12 4 13 39 45 32 57 52 63 44 64 76 80 76 71 75 108 111 102 91 58 64 46 42 2 29 29 8 0 2 33 48 47 3 8 16 17 36 124 112 100 3 22 46 88 44 5
26 1 0 25 65 65 13 41 51 50 49 37 40 25 24 25 1 4 20 49 50 55 53 66 70 64 56 74 23 70 80 88 91 89 76 74 71 63 67 49 57 41 39 63 23 0 12 33 14 18 54 79 95 78 78 16 70 57 92 34 0 42 95 58 0
12 16 4 47 44 12 0 15 66 60 63 49 14 52 32 24 16 3 23 75 55 44 56 91 42 56 74 47 46 66 91 88 78 94 85 79 66 76 53 28 96 73 60 94 15 0 29 20 12 57 36 126 143 117 51 0 45 68 80 28 34 75 99 58 1
4 14 0 59 57 0 35 58 119 115 100 85 45 27 7 28 3 0 16 115 76 56 77 102 57 61 70 80 55 74 74 79 95 100 89 84 73 75 57 119 123 132 144 130 9 17 33 24 31 36 24 103 103 147 89 2 19 69 80 45 0 36 96 53 3
26 3 16 70 17 15 15 23 86 99 84 56 45 35 14 20 2 0 16 88 71 67 33 70 67 58 58 70 81 57 85 102 66 75 87 73 81 69 49 46 79 67 50 56 47 33 8 41 47 0 50 73 137 90 106 26 29 76 66 5 22 29 59 45 4
32 38 0 42 37 28 4 14 60 109 112 54 15 22 7 21 9 12 15 56 27 65 71 47 73 64 55 62 80 69 46 83 72 88 64 91 66 58 59 59 56 47 35 29 22 22 3 31 22 13 37 48 101 132 112 0 20 50 54 11 15 22 29 92 5
0 13 31 18 9 11 9 19 82 66 34 28 9 11 13 0 1 2 6 25 71 66 46 67 44 65 60 69 66 49 67 74 100 71 68 72 59 73 67 41 70 45 90 77 101 99 123 89 106 78 118 122 132 117 133 48 30 67 63 68 99 53 86 71 39
127 98 22 98 117 125 100 76 135 127 132 147 165 139 118 160 118 162 151 135 96 135 121 140 149 118 116 104 119 105 110 126 171 180 173 188 187 161 145 181 157 176 82 178 88 162 152 158 70 134 96 43 81 168 95 137 157 90 151 168 23 104 143 24 96
111 73 6 79 104 136 90 32 133 94 99 120 104 88 131 145 115 128 159 136 159 121 147 123 171 163 150 158 180 168 185 180 173 192 174 134 164 144 109 170 103 73 129 70 160 168 126 128 92 136 118 50 38 166 146 95 165 18 109 125 11 50 139 45 47
54 5 40 131 32 114 29 113 108 82 153 48 4 57 26 153 19 88 180 120 34 3 74 67 86 77 72 122 166 118 75 165 153 188 133 97 125 23 99 151 153 57 169 186 83 155 199 130 44 22 174 30 100 168 73 27 41 101 153 172 103 85 60 97 20
4 19 31 60 12 53 78 17 20 50 76 122 14 39 45 39 23 54 16 34 13 1 31 39 124 131 95 151 39 19 136 169 164 200 190 102 152 104 20 69 163 103 160 165 118 2 23 149 109 99 125 128 26 143 35 68 12 57 79 89 92 16 2 88 21
0 34 10 29 33 25 40 2 0 25 46 38 71 53 27 51 45 26 45 79 30 19 56 92 81 74 88 144 46 53 179 147 197 170 140 79 161 87 46 43 65 30 35 81 51 10 57 59 43 20 63 48 63 69 20 27 44 14 47 28 13 10 19 73 83
55 16 28 16 25 26 33 36 10 17 23 61 24 23 61 39 73 81 34 55 71 114 16 10 31 87 52 110 95 153 166 175 167 177 156 55 22 38 95 63 39 59 53 74 59 78 35 101 47 37 82 66 92 55 48 65 56 88 26 51 61 21 3 86 17
20 48 93 97 69 49 52 37 118 85 87 61 77 96 36 93 58 81 75 103 77 135 86 62 69 49 34 52 90 48 38 137 83 31 44 128 82 53 36 43 78 52 96 97 31 24 55 48 102 124 63 81 65 68 63 58 82 44 43 75 50 70 22 81 8
47 94 125 121 53 127 114 75 61 102 85 105 65 119 127 111 116 166 50 141 112 158 110 124 124 92 71 42 71 69 46 34 97 60 50 50 71 93 69 105 102 64 123 153 88 90 65 84 56 89 40 68 50 91 66 44 48 80 28 106 84 42 0 82 86
71 56 46 72 32 53 50 69 33 57 40 46 48 75 81 46 65 100 93 43 63 53 88 42 68 60 131 139 148 140 143 152 136 153 156 150 153 113 100 92 69 99 77 70 135 144 86 55 63 61 113 65 53 42 54 83 62 69 76 56 89 86 23 67 78
59 28 53 81 113 105 142 17 73 92 79 70 97 76 58 68 59 86 74 108 124 84 79 103 68 102 119 148 131 147 134 132 153 160 150 161 137 163 145 83 77 77 96 85 75 53 112 128 87 80 87 53 95 140 55 64 91 78 52 63 32 61 34 2 72
8 43 58 55 55 48 113 47 57 98 76 83 57 59 83 50 51 132 74 52 80 94 68 80 65 117 132 143 153 137 116 148 158 139 140 151 161 147 163 137 98 81 92 78 74 62 72 106 69 75 84 92 70 108 73 103 66 95 89 95 78 58 11 17 86
6 34 87 110 25 101 68 98 92 56 29 59 50 93 67 96 87 46 95 57 78 64 82 122 141 137 126 156 133 159 120 179 142 168 169 163 170 157 162 163 176 122 81 82 81 77 75 60 102 65 120 67 99 74 58 61 70 55 54 71 93 56 86 11 67
0 77 47 47 77 48 50 74 43 82 66 87 48 73 49 66 58 63 76 81 54 89 82 124 136 114 133 145 156 142 157 147 152 169 173 159 155 154 171 152 162 147 119 59 91 104 88 84 78 79 92 101 77 67 87 90 89 94 66 97 77 75 115 44 70
22 88 80 92 50 66 103 161 64 24 41 89 54 49 69 44 76 45 87 91 79 60 104 70 71 158 142 123 148 127 160 172 175 159 158 184 171 179 145 172 147 118 128 75 79 86 115 78 64 79 78 84 76 86 100 91 77 92 75 92 101 68 90 57 15
2 106 51 61 68 89 70 56 94 71 111 62 131 138 106 134 89 39 53 92 51 95 77 103 84 60 65 131 98 142 163 179 175 182 175 148 170 140 89 71 102 89 107 85 63 83 99 84 156 123 106 66 87 71 130 140 161 162 138 128 121 102 86 58 27
2 112 80 184 72 67 95 76 97 125 72 105 96 100 84 107 115 111 76 120 110 52 109 65 81 47 71 105 151 168 171 184 171 173 169 199 146 77 84 133 159 153 149 174 157 174 158 194 191 172 195 208 169 181 150 175 174 162 181 159 168 136 116 117 3
99 138 87 73 109 98 63 112 47 107 97 81 108 113 102 111 86 101 115 63 104 70 112 84 61 83 61 125 174 194 208 212 211 207 213 193 213 156 123 159 171 181 181 182 189 198 190 184 206 198 203 194 204 200 176 147 170 145 156 159 155 156 136 114 77
6 0 5 0 0 0 0 0 1 1 0 2 0 0 2 1 0 4 0 0 0 1 0 0 1 0 0 2 0 0 0 0 0 0 0 0 8 0 0 2 0 0 1 0 1 2 0 5 1 2 0 0 0 0 0 6 0 5 2 3 0 5 5 0 0